<svg width="260" height="284" viewBox="0 0 260 284" fill="none" xmlns="http://www.w3.org/2000/svg">
<g filter="url(#filter0_i_1_63)">
<path d="M149.168 8.67591C122.432 44.9759 117.796 94.5157 141.381 135.366C164.966 176.215 210.186 196.97 254.991 191.967C245.464 204.901 233.132 216.155 218.27 224.735C161.7 257.396 89.9091 238.957 57.9205 183.551C25.9319 128.146 45.8589 56.7536 102.429 24.093C117.291 15.5125 133.203 10.4589 149.168 8.67591Z" fill="#E2E2E2"/>
</g>
<ellipse cx="68.4553" cy="118.406" rx="28.6269" ry="11.6844" transform="rotate(73.3884 68.4553 118.406)" fill="#C8C8C8"/>
<ellipse cx="102.895" cy="204.133" rx="28.6269" ry="11.6844" transform="rotate(46.7975 102.895 204.133)" fill="#C8C8C8"/>
<ellipse cx="188.191" cy="204.133" rx="28.6269" ry="11.6844" transform="rotate(46.7975 188.191 204.133)" fill="#C8C8C8"/>
<ellipse cx="120.933" cy="149.522" rx="20.819" ry="8.49756" transform="rotate(46.7975 120.933 149.522)" fill="#C8C8C8"/>
<ellipse cx="103.406" cy="54.8781" rx="20.819" ry="8.49756" transform="rotate(46.7975 103.406 54.8781)" fill="#C8C8C8"/>
<defs>
<filter id="filter0_i_1_63" x="42.6577" y="8.6759" width="212.333" height="236.211" filterUnits="userSpaceOnUse" color-interpolation-filters="sRGB">
<feFlood flood-opacity="0" result="BackgroundImageFix"/>
<feBlend mode="normal" in="SourceGraphic" in2="BackgroundImageFix" result="shape"/>
<feColorMatrix in="SourceAlpha" type="matrix" values="0 0 0 0 0 0 0 0 0 0 0 0 0 0 0 0 0 0 127 0" result="hardAlpha"/>
<feOffset dy="4"/>
<feGaussianBlur stdDeviation="4"/>
<feComposite in2="hardAlpha" operator="arithmetic" k2="-1" k3="1"/>
<feColorMatrix type="matrix" values="0 0 0 0 1 0 0 0 0 1 0 0 0 0 1 0 0 0 0.55 0"/>
<feBlend mode="normal" in2="shape" result="effect1_innerShadow_1_63"/>
</filter>
</defs>
</svg>
